<svg xmlns="http://www.w3.org/2000/svg" xmlns:xlink="http://www.w3.org/1999/xlink" preserveAspectRatio="xMidYMid" width="499.97" height="647.02" viewBox="0 0 850 1100">
  <defs>
    <style>
      .cls-1 {
        fill: #01215e;
      }

      .cls-2 {
        fill: #012c70;
      }

      .cls-3 {
        fill: #013882;
      }

      .cls-4 {
        fill: #014494;
    }

      .cls-5 {
        fill: #0150a6;
      }

      .cls-6 {
        fill: #014494;
    }
    </style>
  </defs>
  <g>
    <circle cx="400" cy="550" r="550" class="cls-1"/>
    <circle cx="425" cy="518" r="475" class="cls-2"/>
    <circle cx="425" cy="493" r="400" class="cls-3"/>
    <!-- <circle cx="400" cy="453" r="325" class="cls-4"/> -->
    <!-- <circle cx="445" cy="500" r="325" class="cls-4"/> -->
    <!-- <circle cx="425" cy="471" r="290" class="cls-5"/> -->
    <circle cx="425" cy="465" r="255" class="cls-6"/>
      <g>
  <path d="M475.075,186.573c0-7.043-5.328-11.42-15.992-13.135L315.766,152.6L251.529,22.694c-3.614-7.804-8.281-11.704-13.99-11.704
    c-5.708,0-10.372,3.9-13.989,11.704L159.31,152.6L15.986,173.438C5.33,175.153,0,179.53,0,186.573c0,3.999,2.38,8.567,7.139,13.706
    l103.924,101.068L86.51,444.096c-0.381,2.666-0.57,4.575-0.57,5.712c0,3.997,0.998,7.374,2.996,10.136
    c1.997,2.766,4.993,4.142,8.992,4.142c3.428,0,7.233-1.137,11.42-3.423l128.188-67.386l128.197,67.386
    c4.004,2.286,7.81,3.423,11.416,3.423c3.819,0,6.715-1.376,8.713-4.142c1.992-2.758,2.991-6.139,2.991-10.136
    c0-2.471-0.096-4.374-0.287-5.712l-24.555-142.749l103.637-101.068C472.604,195.33,475.075,190.76,475.075,186.573z" class="cls-3" transform="translate(185,205)"/>
  </g>
  </g>
</svg>
